<svg width="156.000000" height="156.000000" viewBox="0 0 156 156" fill="none" xmlns="http://www.w3.org/2000/svg" xmlns:xlink="http://www.w3.org/1999/xlink">
	<desc>
			Created with Pixso.
	</desc>
	<defs/>
	<path id="Facebook_ICO" d="M0 31.19C0 13.96 13.96 0 31.2 0L124.8 0C142.03 0 156 13.96 156 31.19L156 124.8C156 142.03 142.03 156 124.8 156L31.2 156C13.96 156 0 142.03 0 124.8L0 31.19ZM31.2 15.59C22.58 15.59 15.6 22.58 15.6 31.19L15.6 124.8C15.6 133.41 22.58 140.39 31.2 140.39L78 140.39L78 85.8L70.2 85.8C65.89 85.8 62.39 82.3 62.39 78C62.39 73.69 65.89 70.19 70.2 70.19L78 70.19L78 58.5C78 43.42 90.22 31.19 105.3 31.19L109.98 31.19C114.28 31.19 117.78 34.69 117.78 39C117.78 43.3 114.28 46.8 109.98 46.8L105.3 46.8C98.83 46.8 93.6 52.03 93.6 58.5L93.6 70.19L109.98 70.19C114.28 70.19 117.78 73.69 117.78 78C117.78 82.3 114.28 85.8 109.98 85.8L93.6 85.8L93.6 140.39L124.8 140.39C133.41 140.39 140.39 133.41 140.39 124.8L140.39 31.19C140.39 22.58 133.41 15.59 124.8 15.59L31.2 15.59Z" fill="#000000" fill-opacity="1.000000" fill-rule="evenodd"/>
</svg>
