<svg width="156.000000" height="156.000000" viewBox="0 0 156 156" fill="none" xmlns="http://www.w3.org/2000/svg" xmlns:xlink="http://www.w3.org/1999/xlink">
	<desc>
			Created with Pixso.
	</desc>
	<defs/>
	<path id="Instagram_ICO" d="M45.78 0.95C33.08 1.52 22.08 4.63 13.19 13.48C4.27 22.37 1.2 33.42 0.63 45.99C0.27 53.83 -1.81 113.08 4.24 128.62C8.32 139.1 16.36 147.16 26.94 151.26C31.88 153.18 37.51 154.48 45.78 154.86C114.89 157.99 140.51 156.28 151.32 128.62C153.23 123.7 154.55 118.07 154.92 109.82C158.08 40.53 154.41 25.51 142.36 13.48C132.81 3.95 121.57 -2.54 45.78 0.95ZM46.41 140.92C38.85 140.58 34.74 139.32 32 138.26C25.11 135.58 19.93 130.42 17.27 123.57C12.66 111.77 14.19 55.69 14.6 46.62C15 37.73 16.81 29.61 23.08 23.33C30.84 15.59 40.87 11.8 109.14 14.88C118.05 15.28 126.19 17.08 132.48 23.33C140.24 31.08 144.09 41.18 140.96 109.2C140.61 116.75 139.35 120.84 138.28 123.57C131.26 141.57 115.1 144.07 46.41 140.92ZM109.89 36.57C109.89 41.7 114.06 45.87 119.21 45.87C124.35 45.87 128.53 41.7 128.53 36.57C128.53 31.45 124.35 27.28 119.21 27.28C114.06 27.28 109.89 31.45 109.89 36.57ZM37.92 77.9C37.92 99.86 55.77 117.66 77.78 117.66C99.79 117.66 117.63 99.86 117.63 77.9C117.63 55.94 99.79 38.16 77.78 38.16C55.77 38.16 37.92 55.94 37.92 77.9ZM51.91 77.9C51.91 63.66 63.49 52.1 77.78 52.1C92.07 52.1 103.65 63.66 103.65 77.9C103.65 92.15 92.07 103.72 77.78 103.72C63.49 103.72 51.91 92.15 51.91 77.9Z" fill="#000000" fill-opacity="1.000000" fill-rule="evenodd"/>
</svg>
