<svg width="156.000000" height="156.000000" viewBox="0 0 156 156" fill="none" xmlns="http://www.w3.org/2000/svg" xmlns:xlink="http://www.w3.org/1999/xlink">
	<desc>
			Created with Pixso.
	</desc>
	<defs/>
	<path id="YouTube_ICO" d="M48.53 18.68C66.91 15.66 89.08 15.66 107.46 18.68C124.15 21.41 137.09 34.98 139.57 49.6C142.56 67.29 142.56 88.7 139.57 106.39C137.09 121.01 124.15 134.58 107.46 137.31C89.08 140.33 66.91 140.33 48.53 137.31C31.84 134.58 18.9 121.01 16.42 106.39C13.43 88.7 13.43 67.29 16.42 49.6C18.9 34.98 31.84 21.41 48.53 18.68ZM109.45 2.42C89.75 -0.81 66.24 -0.81 46.54 2.42C25.17 5.92 6.38 23.58 2.51 46.44C-0.84 66.22 -0.84 89.77 2.51 109.55C6.38 132.41 25.17 150.07 46.54 153.57C66.24 156.8 89.75 156.8 109.45 153.57C130.82 150.07 149.61 132.41 153.48 109.55C156.83 89.77 156.83 66.22 153.48 46.44C149.61 23.58 130.82 5.92 109.45 2.42ZM67.75 38.32C65.57 36.64 62.77 36.49 60.47 37.91C58.16 39.34 56.72 42.12 56.72 45.15L56.72 110.84C56.72 113.86 58.16 116.65 60.47 118.08C62.77 119.51 65.57 119.35 67.75 117.67L110.29 84.83C112.27 83.3 113.45 80.74 113.45 78C113.45 75.25 112.27 72.69 110.29 71.16L67.75 38.32ZM93.58 78L70.9 95.5L70.9 60.5L93.58 78Z" fill="#000000" fill-opacity="1.000000" fill-rule="evenodd"/>
</svg>
